<svg width="223" height="223" viewBox="0 0 223 223" fill="none" xmlns="http://www.w3.org/2000/svg">
<path d="M48.7927 48.1235H128.807V59.0265H48.7927V48.1235ZM48.7927 75.7327H128.807V86.4598H48.7927V75.7327ZM80.2707 33H92.9323V81.0083H80.2707V33ZM60.575 109.673V129.368H112.804V109.673H60.575ZM48.7928 99.473H125.289V139.744H48.7928V99.473Z" fill="white"/>
<rect x="55" y="152" width="12" height="39" transform="rotate(-30 55 152)" fill="white"/>
<rect width="12" height="39" transform="matrix(-0.866025 -0.5 -0.5 0.866025 116.892 152)" fill="white"/>
<rect width="12" height="39" transform="matrix(-0.866025 -0.5 -0.5 0.866025 176.892 47)" fill="white"/>
<rect width="12" height="39" transform="matrix(-0.866025 -0.5 -0.5 0.866025 176.892 101)" fill="white"/>
<rect width="12" height="39" transform="matrix(-0.866025 -0.5 -0.5 0.866025 171.892 156)" fill="white"/>
<rect width="12" height="77" transform="matrix(-4.37114e-08 -1 -1 4.37114e-08 125 190)" fill="white"/>
<rect x="6" y="6" width="211" height="211" stroke="white" stroke-width="12"/>
</svg>
